<mxfile host="app.diagrams.net" agent="Mozilla/5.0 (Macintosh; Intel Mac OS X 10.15; rv:134.0) Gecko/20100101 Firefox/134.0" version="26.0.6">
  <diagram name="architecture" id="VlyZOE0tlXweQJFLaEv1">
    <mxGraphModel dx="2482" dy="968" grid="1" gridSize="10" guides="1" tooltips="1" connect="1" arrows="1" fold="1" page="1" pageScale="1" pageWidth="850" pageHeight="1100" math="0" shadow="0">
      <root>
        <mxCell id="xk_Vn_o706n0kWUSLnYP-0" />
        <mxCell id="xk_Vn_o706n0kWUSLnYP-1" parent="xk_Vn_o706n0kWUSLnYP-0" />
        <mxCell id="xk_Vn_o706n0kWUSLnYP-2" value="" style="edgeStyle=orthogonalEdgeStyle;rounded=0;orthogonalLoop=1;jettySize=auto;html=1;entryX=0;entryY=0.5;entryDx=0;entryDy=0;" parent="xk_Vn_o706n0kWUSLnYP-1" target="xk_Vn_o706n0kWUSLnYP-6" edge="1">
          <mxGeometry relative="1" as="geometry">
            <mxPoint x="-780" y="80" as="sourcePoint" />
            <Array as="points">
              <mxPoint x="-780" y="120" />
            </Array>
          </mxGeometry>
        </mxCell>
        <mxCell id="xk_Vn_o706n0kWUSLnYP-3" value="__main__.main" style="rounded=0;whiteSpace=wrap;html=1;fillColor=#f5f5f5;strokeColor=#666666;fontColor=#333333;" parent="xk_Vn_o706n0kWUSLnYP-1" vertex="1">
          <mxGeometry x="-800" y="40" width="200" height="40" as="geometry" />
        </mxCell>
        <mxCell id="xk_Vn_o706n0kWUSLnYP-4" value="__main__.run_application" style="whiteSpace=wrap;html=1;rounded=0;fillColor=#f5f5f5;strokeColor=#666666;fontColor=#333333;" parent="xk_Vn_o706n0kWUSLnYP-1" vertex="1">
          <mxGeometry x="-760" y="220" width="200" height="40" as="geometry" />
        </mxCell>
        <mxCell id="xk_Vn_o706n0kWUSLnYP-5" value="cli.configure_cli_logging" style="whiteSpace=wrap;html=1;rounded=0;fillColor=#e1d5e7;strokeColor=#9673a6;" parent="xk_Vn_o706n0kWUSLnYP-1" vertex="1">
          <mxGeometry x="-760" y="160" width="200" height="40" as="geometry" />
        </mxCell>
        <mxCell id="xk_Vn_o706n0kWUSLnYP-6" value="cli.create_cli_parser" style="whiteSpace=wrap;html=1;rounded=0;fillColor=#e1d5e7;strokeColor=#9673a6;" parent="xk_Vn_o706n0kWUSLnYP-1" vertex="1">
          <mxGeometry x="-760" y="100" width="200" height="40" as="geometry" />
        </mxCell>
        <mxCell id="xk_Vn_o706n0kWUSLnYP-7" value="" style="edgeStyle=orthogonalEdgeStyle;rounded=0;orthogonalLoop=1;jettySize=auto;html=1;entryX=0;entryY=0.5;entryDx=0;entryDy=0;" parent="xk_Vn_o706n0kWUSLnYP-1" target="xk_Vn_o706n0kWUSLnYP-4" edge="1">
          <mxGeometry relative="1" as="geometry">
            <mxPoint x="-780" y="80" as="sourcePoint" />
            <mxPoint x="-750" y="130" as="targetPoint" />
            <Array as="points">
              <mxPoint x="-780" y="240" />
            </Array>
          </mxGeometry>
        </mxCell>
        <mxCell id="xk_Vn_o706n0kWUSLnYP-9" value="models.create_db_engine" style="whiteSpace=wrap;html=1;rounded=0;fillColor=#d5e8d4;strokeColor=#82b366;" parent="xk_Vn_o706n0kWUSLnYP-1" vertex="1">
          <mxGeometry x="-720" y="340" width="200" height="40" as="geometry" />
        </mxCell>
        <mxCell id="xk_Vn_o706n0kWUSLnYP-10" value="models.create_db_metadata" style="whiteSpace=wrap;html=1;rounded=0;fillColor=#d5e8d4;strokeColor=#82b366;" parent="xk_Vn_o706n0kWUSLnYP-1" vertex="1">
          <mxGeometry x="-720" y="400" width="200" height="40" as="geometry" />
        </mxCell>
        <mxCell id="xk_Vn_o706n0kWUSLnYP-12" value="" style="edgeStyle=orthogonalEdgeStyle;rounded=0;orthogonalLoop=1;jettySize=auto;html=1;entryX=0;entryY=0.5;entryDx=0;entryDy=0;exitX=0.1;exitY=1.001;exitDx=0;exitDy=0;exitPerimeter=0;" parent="xk_Vn_o706n0kWUSLnYP-1" source="xk_Vn_o706n0kWUSLnYP-4" target="xk_Vn_o706n0kWUSLnYP-9" edge="1">
          <mxGeometry relative="1" as="geometry">
            <mxPoint x="-731" y="210" as="sourcePoint" />
            <mxPoint x="-710" y="250" as="targetPoint" />
          </mxGeometry>
        </mxCell>
        <mxCell id="xk_Vn_o706n0kWUSLnYP-13" value="" style="edgeStyle=orthogonalEdgeStyle;rounded=0;orthogonalLoop=1;jettySize=auto;html=1;entryX=0;entryY=0.5;entryDx=0;entryDy=0;exitX=0.1;exitY=1.001;exitDx=0;exitDy=0;exitPerimeter=0;" parent="xk_Vn_o706n0kWUSLnYP-1" source="xk_Vn_o706n0kWUSLnYP-4" target="xk_Vn_o706n0kWUSLnYP-10" edge="1">
          <mxGeometry relative="1" as="geometry">
            <mxPoint x="-731" y="211" as="sourcePoint" />
            <mxPoint x="-710" y="310" as="targetPoint" />
          </mxGeometry>
        </mxCell>
        <mxCell id="xk_Vn_o706n0kWUSLnYP-15" value="models.create_db_url" style="whiteSpace=wrap;html=1;rounded=0;fillColor=#d5e8d4;strokeColor=#82b366;" parent="xk_Vn_o706n0kWUSLnYP-1" vertex="1">
          <mxGeometry x="-720" y="280" width="200" height="40" as="geometry" />
        </mxCell>
        <mxCell id="xk_Vn_o706n0kWUSLnYP-16" value="" style="edgeStyle=orthogonalEdgeStyle;rounded=0;orthogonalLoop=1;jettySize=auto;html=1;entryX=0;entryY=0.5;entryDx=0;entryDy=0;exitX=0.1;exitY=1.001;exitDx=0;exitDy=0;exitPerimeter=0;" parent="xk_Vn_o706n0kWUSLnYP-1" source="xk_Vn_o706n0kWUSLnYP-4" target="xk_Vn_o706n0kWUSLnYP-15" edge="1">
          <mxGeometry relative="1" as="geometry">
            <mxPoint x="-741" y="261" as="sourcePoint" />
            <mxPoint x="-710" y="370" as="targetPoint" />
          </mxGeometry>
        </mxCell>
        <mxCell id="xk_Vn_o706n0kWUSLnYP-17" value="app.create_app" style="whiteSpace=wrap;html=1;rounded=0;fillColor=#dae8fc;strokeColor=#6c8ebf;" parent="xk_Vn_o706n0kWUSLnYP-1" vertex="1">
          <mxGeometry x="-720" y="460" width="200" height="40" as="geometry" />
        </mxCell>
        <mxCell id="xk_Vn_o706n0kWUSLnYP-19" value="app.run_server" style="whiteSpace=wrap;html=1;rounded=0;fillColor=#dae8fc;strokeColor=#6c8ebf;" parent="xk_Vn_o706n0kWUSLnYP-1" vertex="1">
          <mxGeometry x="-720" y="1300" width="200" height="40" as="geometry" />
        </mxCell>
        <mxCell id="xk_Vn_o706n0kWUSLnYP-20" value="" style="strokeWidth=1.5;html=1;shape=mxgraph.flowchart.annotation_2;align=left;labelPosition=right;pointerEvents=1;rotation=-180;strokeColor=#000000;fontColor=#333333;dashed=1;dashPattern=1 1;" parent="xk_Vn_o706n0kWUSLnYP-1" vertex="1">
          <mxGeometry x="-500" y="280" width="30" height="160" as="geometry" />
        </mxCell>
        <mxCell id="xk_Vn_o706n0kWUSLnYP-21" value="Connect to the database and map its schema (metadata), creating a programmatic representation of each table." style="text;html=1;align=left;verticalAlign=middle;whiteSpace=wrap;rounded=0;fontColor=#000000;" parent="xk_Vn_o706n0kWUSLnYP-1" vertex="1">
          <mxGeometry x="-460" y="320" width="180" height="80" as="geometry" />
        </mxCell>
        <mxCell id="xk_Vn_o706n0kWUSLnYP-22" value="" style="strokeWidth=1.5;html=1;shape=mxgraph.flowchart.annotation_2;align=left;labelPosition=right;pointerEvents=1;rotation=-180;strokeColor=#000000;fontColor=#333333;dashed=1;dashPattern=1 1;" parent="xk_Vn_o706n0kWUSLnYP-1" vertex="1">
          <mxGeometry x="-540" y="100" width="30" height="100" as="geometry" />
        </mxCell>
        <mxCell id="xk_Vn_o706n0kWUSLnYP-23" value="Parse command line arguments and configure STDOUT." style="text;html=1;align=left;verticalAlign=middle;whiteSpace=wrap;rounded=0;fontColor=#000000;" parent="xk_Vn_o706n0kWUSLnYP-1" vertex="1">
          <mxGeometry x="-500" y="120" width="180" height="60" as="geometry" />
        </mxCell>
        <mxCell id="xk_Vn_o706n0kWUSLnYP-27" value="routers.create_welcome_router" style="whiteSpace=wrap;html=1;rounded=0;fillColor=#f8cecc;strokeColor=#b85450;" parent="xk_Vn_o706n0kWUSLnYP-1" vertex="1">
          <mxGeometry x="-720" y="520" width="200" height="40" as="geometry" />
        </mxCell>
        <mxCell id="xk_Vn_o706n0kWUSLnYP-28" value="handlers.create_welcome_handler" style="whiteSpace=wrap;html=1;rounded=0;fillColor=#ffe6cc;strokeColor=#d79b00;" parent="xk_Vn_o706n0kWUSLnYP-1" vertex="1">
          <mxGeometry x="-680" y="580" width="220" height="40" as="geometry" />
        </mxCell>
        <mxCell id="xk_Vn_o706n0kWUSLnYP-29" value="handlers.create_version_handler" style="whiteSpace=wrap;html=1;rounded=0;fillColor=#ffe6cc;strokeColor=#d79b00;" parent="xk_Vn_o706n0kWUSLnYP-1" vertex="1">
          <mxGeometry x="-680" y="700" width="220" height="40" as="geometry" />
        </mxCell>
        <mxCell id="xk_Vn_o706n0kWUSLnYP-30" value="handlers.create_meta_handler" style="whiteSpace=wrap;html=1;rounded=0;fillColor=#ffe6cc;strokeColor=#d79b00;" parent="xk_Vn_o706n0kWUSLnYP-1" vertex="1">
          <mxGeometry x="-680" y="820" width="220" height="40" as="geometry" />
        </mxCell>
        <mxCell id="xk_Vn_o706n0kWUSLnYP-31" value="handlers.create_put_record_handler" style="whiteSpace=wrap;html=1;rounded=0;fillColor=#ffe6cc;strokeColor=#d79b00;" parent="xk_Vn_o706n0kWUSLnYP-1" vertex="1">
          <mxGeometry x="-680" y="1120" width="220" height="40" as="geometry" />
        </mxCell>
        <mxCell id="xk_Vn_o706n0kWUSLnYP-32" value="handlers.create_list_records_handler" style="whiteSpace=wrap;html=1;rounded=0;fillColor=#ffe6cc;strokeColor=#d79b00;" parent="xk_Vn_o706n0kWUSLnYP-1" vertex="1">
          <mxGeometry x="-680" y="940" width="220" height="40" as="geometry" />
        </mxCell>
        <mxCell id="xk_Vn_o706n0kWUSLnYP-33" value="handlers.create_get_record_handler" style="whiteSpace=wrap;html=1;rounded=0;fillColor=#ffe6cc;strokeColor=#d79b00;" parent="xk_Vn_o706n0kWUSLnYP-1" vertex="1">
          <mxGeometry x="-680" y="1000" width="220" height="40" as="geometry" />
        </mxCell>
        <mxCell id="xk_Vn_o706n0kWUSLnYP-34" value="handlers.create_post_record_handler" style="whiteSpace=wrap;html=1;rounded=0;fillColor=#ffe6cc;strokeColor=#d79b00;" parent="xk_Vn_o706n0kWUSLnYP-1" vertex="1">
          <mxGeometry x="-680" y="1060" width="220" height="40" as="geometry" />
        </mxCell>
        <mxCell id="xk_Vn_o706n0kWUSLnYP-35" value="handlers.create_delete_record_handler" style="whiteSpace=wrap;html=1;rounded=0;fillColor=#ffe6cc;strokeColor=#d79b00;" parent="xk_Vn_o706n0kWUSLnYP-1" vertex="1">
          <mxGeometry x="-680" y="1240" width="220" height="40" as="geometry" />
        </mxCell>
        <mxCell id="xk_Vn_o706n0kWUSLnYP-36" value="handlers.create_patch_record_handler" style="whiteSpace=wrap;html=1;rounded=0;fillColor=#ffe6cc;strokeColor=#d79b00;" parent="xk_Vn_o706n0kWUSLnYP-1" vertex="1">
          <mxGeometry x="-680" y="1180" width="220" height="40" as="geometry" />
        </mxCell>
        <mxCell id="u4DAFboVkTAPZ10mRQ4z-1" value="" style="edgeStyle=orthogonalEdgeStyle;rounded=0;orthogonalLoop=1;jettySize=auto;html=1;entryX=0;entryY=0.5;entryDx=0;entryDy=0;" parent="xk_Vn_o706n0kWUSLnYP-1" target="xk_Vn_o706n0kWUSLnYP-5" edge="1">
          <mxGeometry relative="1" as="geometry">
            <mxPoint x="-780" y="80" as="sourcePoint" />
            <mxPoint x="-710" y="430" as="targetPoint" />
            <Array as="points">
              <mxPoint x="-780" y="180" />
            </Array>
          </mxGeometry>
        </mxCell>
        <mxCell id="u4DAFboVkTAPZ10mRQ4z-2" value="" style="edgeStyle=orthogonalEdgeStyle;rounded=0;orthogonalLoop=1;jettySize=auto;html=1;entryX=0;entryY=0.5;entryDx=0;entryDy=0;exitX=0.1;exitY=1.001;exitDx=0;exitDy=0;exitPerimeter=0;" parent="xk_Vn_o706n0kWUSLnYP-1" source="xk_Vn_o706n0kWUSLnYP-4" target="xk_Vn_o706n0kWUSLnYP-27" edge="1">
          <mxGeometry relative="1" as="geometry">
            <mxPoint x="-731" y="270" as="sourcePoint" />
            <mxPoint x="-714" y="490" as="targetPoint" />
          </mxGeometry>
        </mxCell>
        <mxCell id="u4DAFboVkTAPZ10mRQ4z-3" value="" style="edgeStyle=orthogonalEdgeStyle;rounded=0;orthogonalLoop=1;jettySize=auto;html=1;entryX=0;entryY=0.5;entryDx=0;entryDy=0;exitX=0.1;exitY=1.011;exitDx=0;exitDy=0;exitPerimeter=0;" parent="xk_Vn_o706n0kWUSLnYP-1" source="xk_Vn_o706n0kWUSLnYP-27" target="xk_Vn_o706n0kWUSLnYP-28" edge="1">
          <mxGeometry relative="1" as="geometry">
            <mxPoint x="-710.75" y="610" as="sourcePoint" />
            <mxPoint x="-689.75" y="649" as="targetPoint" />
          </mxGeometry>
        </mxCell>
        <mxCell id="u4DAFboVkTAPZ10mRQ4z-17" value="" style="strokeWidth=1.5;html=1;shape=mxgraph.flowchart.annotation_2;align=left;labelPosition=right;pointerEvents=1;rotation=-180;strokeColor=#000000;fontColor=#333333;dashed=1;dashPattern=1 1;" parent="xk_Vn_o706n0kWUSLnYP-1" vertex="1">
          <mxGeometry x="-580" y="40" width="30" height="40" as="geometry" />
        </mxCell>
        <mxCell id="u4DAFboVkTAPZ10mRQ4z-18" value="Application entrypoint executed by the CLI command." style="text;html=1;align=left;verticalAlign=middle;whiteSpace=wrap;rounded=0;fontColor=#000000;" parent="xk_Vn_o706n0kWUSLnYP-1" vertex="1">
          <mxGeometry x="-540" y="40" width="180" height="40" as="geometry" />
        </mxCell>
        <mxCell id="yfY8Aihl0Ymi1jhDVTgm-0" value="routers.create_model_router" style="whiteSpace=wrap;html=1;rounded=0;fillColor=#f8cecc;strokeColor=#b85450;" parent="xk_Vn_o706n0kWUSLnYP-1" vertex="1">
          <mxGeometry x="-720" y="880" width="200" height="40" as="geometry" />
        </mxCell>
        <mxCell id="yfY8Aihl0Ymi1jhDVTgm-1" value="routers.create_meta_router" style="whiteSpace=wrap;html=1;rounded=0;fillColor=#f8cecc;strokeColor=#b85450;" parent="xk_Vn_o706n0kWUSLnYP-1" vertex="1">
          <mxGeometry x="-720" y="640" width="200" height="40" as="geometry" />
        </mxCell>
        <mxCell id="yfY8Aihl0Ymi1jhDVTgm-2" value="handlers.create_engine_handler" style="whiteSpace=wrap;html=1;rounded=0;fillColor=#ffe6cc;strokeColor=#d79b00;" parent="xk_Vn_o706n0kWUSLnYP-1" vertex="1">
          <mxGeometry x="-680" y="760" width="220" height="40" as="geometry" />
        </mxCell>
        <mxCell id="yfY8Aihl0Ymi1jhDVTgm-3" value="" style="strokeWidth=1.5;html=1;shape=mxgraph.flowchart.annotation_2;align=left;labelPosition=right;pointerEvents=1;rotation=-180;strokeColor=#000000;fontColor=#333333;dashed=1;dashPattern=1 1;" parent="xk_Vn_o706n0kWUSLnYP-1" vertex="1">
          <mxGeometry x="-500" y="460" width="30" height="40" as="geometry" />
        </mxCell>
        <mxCell id="yfY8Aihl0Ymi1jhDVTgm-4" value="&lt;div&gt;Instantiate an empty application&lt;/div&gt;&lt;div&gt;with preconfigured middleware.&lt;br&gt;&lt;/div&gt;" style="text;html=1;align=left;verticalAlign=middle;whiteSpace=wrap;rounded=0;fontColor=#000000;" parent="xk_Vn_o706n0kWUSLnYP-1" vertex="1">
          <mxGeometry x="-460" y="460" width="180" height="40" as="geometry" />
        </mxCell>
        <mxCell id="yfY8Aihl0Ymi1jhDVTgm-5" value="" style="strokeWidth=1.5;html=1;shape=mxgraph.flowchart.annotation_2;align=left;labelPosition=right;pointerEvents=1;rotation=-180;strokeColor=light-dark(#000000, #ededed);fontColor=#000000;dashed=1;dashPattern=1 1;" parent="xk_Vn_o706n0kWUSLnYP-1" vertex="1">
          <mxGeometry x="-440" y="520" width="30" height="760" as="geometry" />
        </mxCell>
        <mxCell id="yfY8Aihl0Ymi1jhDVTgm-6" value="Dynamically create and add API endpoints to the application.&lt;br&gt;&lt;br&gt;Individual endpoint handlers are grouped to common API routes via routers." style="text;html=1;align=left;verticalAlign=middle;whiteSpace=wrap;rounded=0;fontColor=#000000;" parent="xk_Vn_o706n0kWUSLnYP-1" vertex="1">
          <mxGeometry x="-400" y="870" width="180" height="60" as="geometry" />
        </mxCell>
        <mxCell id="vqremdskvs6pAqpLXsVv-0" value="" style="strokeWidth=1.5;html=1;shape=mxgraph.flowchart.annotation_2;align=left;labelPosition=right;pointerEvents=1;rotation=-180;strokeColor=#000000;fontColor=#333333;dashed=1;dashPattern=1 1;" parent="xk_Vn_o706n0kWUSLnYP-1" vertex="1">
          <mxGeometry x="-500" y="1300" width="30" height="40" as="geometry" />
        </mxCell>
        <mxCell id="vqremdskvs6pAqpLXsVv-1" value="Launch the application server." style="text;html=1;align=left;verticalAlign=middle;whiteSpace=wrap;rounded=0;fontColor=#000000;" parent="xk_Vn_o706n0kWUSLnYP-1" vertex="1">
          <mxGeometry x="-460" y="1300" width="180" height="40" as="geometry" />
        </mxCell>
        <mxCell id="vqremdskvs6pAqpLXsVv-2" value="" style="rounded=0;whiteSpace=wrap;html=1;" parent="xk_Vn_o706n0kWUSLnYP-1" vertex="1">
          <mxGeometry x="-250" y="40" width="220" height="270" as="geometry" />
        </mxCell>
        <mxCell id="vqremdskvs6pAqpLXsVv-3" value="" style="rounded=0;whiteSpace=wrap;html=1;fillColor=#f5f5f5;strokeColor=#666666;fontColor=#333333;" parent="xk_Vn_o706n0kWUSLnYP-1" vertex="1">
          <mxGeometry x="-220" y="120" width="40" height="20" as="geometry" />
        </mxCell>
        <mxCell id="vqremdskvs6pAqpLXsVv-4" value="" style="rounded=0;whiteSpace=wrap;html=1;fillColor=#e1d5e7;strokeColor=#9673a6;" parent="xk_Vn_o706n0kWUSLnYP-1" vertex="1">
          <mxGeometry x="-220" y="150" width="40" height="20" as="geometry" />
        </mxCell>
        <mxCell id="vqremdskvs6pAqpLXsVv-5" value="" style="rounded=0;whiteSpace=wrap;html=1;fillColor=#d5e8d4;strokeColor=#82b366;" parent="xk_Vn_o706n0kWUSLnYP-1" vertex="1">
          <mxGeometry x="-220" y="180" width="40" height="20" as="geometry" />
        </mxCell>
        <mxCell id="vqremdskvs6pAqpLXsVv-6" value="" style="rounded=0;whiteSpace=wrap;html=1;fillColor=#dae8fc;strokeColor=#6c8ebf;" parent="xk_Vn_o706n0kWUSLnYP-1" vertex="1">
          <mxGeometry x="-220" y="210" width="40" height="20" as="geometry" />
        </mxCell>
        <mxCell id="vqremdskvs6pAqpLXsVv-7" value="auto_rest.__main__" style="text;html=1;align=left;verticalAlign=middle;whiteSpace=wrap;rounded=0;fontColor=#333333;" parent="xk_Vn_o706n0kWUSLnYP-1" vertex="1">
          <mxGeometry x="-170" y="120" width="120" height="20" as="geometry" />
        </mxCell>
        <mxCell id="vqremdskvs6pAqpLXsVv-8" value="auto_rest.cli" style="text;html=1;align=left;verticalAlign=middle;whiteSpace=wrap;rounded=0;fontColor=#333333;" parent="xk_Vn_o706n0kWUSLnYP-1" vertex="1">
          <mxGeometry x="-170" y="150" width="120" height="20" as="geometry" />
        </mxCell>
        <mxCell id="vqremdskvs6pAqpLXsVv-9" value="auto_rest.models" style="text;html=1;align=left;verticalAlign=middle;whiteSpace=wrap;rounded=0;fontColor=#333333;" parent="xk_Vn_o706n0kWUSLnYP-1" vertex="1">
          <mxGeometry x="-170" y="180" width="120" height="20" as="geometry" />
        </mxCell>
        <mxCell id="vqremdskvs6pAqpLXsVv-10" value="auto_rest.app" style="text;html=1;align=left;verticalAlign=middle;whiteSpace=wrap;rounded=0;fontColor=#333333;" parent="xk_Vn_o706n0kWUSLnYP-1" vertex="1">
          <mxGeometry x="-170" y="210" width="120" height="20" as="geometry" />
        </mxCell>
        <mxCell id="vqremdskvs6pAqpLXsVv-11" value="" style="rounded=0;whiteSpace=wrap;html=1;fillColor=#f8cecc;strokeColor=#b85450;" parent="xk_Vn_o706n0kWUSLnYP-1" vertex="1">
          <mxGeometry x="-220" y="240" width="40" height="20" as="geometry" />
        </mxCell>
        <mxCell id="vqremdskvs6pAqpLXsVv-12" value="auto_rest.routers" style="text;html=1;align=left;verticalAlign=middle;whiteSpace=wrap;rounded=0;fontColor=#333333;" parent="xk_Vn_o706n0kWUSLnYP-1" vertex="1">
          <mxGeometry x="-170" y="240" width="120" height="20" as="geometry" />
        </mxCell>
        <mxCell id="vqremdskvs6pAqpLXsVv-13" value="" style="rounded=0;whiteSpace=wrap;html=1;fillColor=#ffe6cc;strokeColor=#d79b00;" parent="xk_Vn_o706n0kWUSLnYP-1" vertex="1">
          <mxGeometry x="-220" y="270" width="40" height="20" as="geometry" />
        </mxCell>
        <mxCell id="vqremdskvs6pAqpLXsVv-14" value="&lt;div&gt;auto_rest.handlers&lt;/div&gt;" style="text;html=1;align=left;verticalAlign=middle;whiteSpace=wrap;rounded=0;fontColor=#333333;" parent="xk_Vn_o706n0kWUSLnYP-1" vertex="1">
          <mxGeometry x="-170" y="270" width="120" height="20" as="geometry" />
        </mxCell>
        <mxCell id="vqremdskvs6pAqpLXsVv-15" value="&lt;div align=&quot;center&quot;&gt;&lt;b&gt;Legend&lt;/b&gt;&lt;/div&gt;" style="text;html=1;align=center;verticalAlign=middle;whiteSpace=wrap;rounded=0;fontColor=#333333;fontSize=14;" parent="xk_Vn_o706n0kWUSLnYP-1" vertex="1">
          <mxGeometry x="-200" y="50" width="120" height="20" as="geometry" />
        </mxCell>
        <mxCell id="vqremdskvs6pAqpLXsVv-19" value="" style="edgeStyle=orthogonalEdgeStyle;rounded=0;orthogonalLoop=1;jettySize=auto;html=1;entryX=0;entryY=0.5;entryDx=0;entryDy=0;exitX=0.1;exitY=1.003;exitDx=0;exitDy=0;exitPerimeter=0;" parent="xk_Vn_o706n0kWUSLnYP-1" source="yfY8Aihl0Ymi1jhDVTgm-0" target="xk_Vn_o706n0kWUSLnYP-32" edge="1">
          <mxGeometry relative="1" as="geometry">
            <mxPoint x="-710" y="930" as="sourcePoint" />
            <mxPoint x="-670" y="860" as="targetPoint" />
          </mxGeometry>
        </mxCell>
        <mxCell id="vqremdskvs6pAqpLXsVv-21" value="" style="edgeStyle=orthogonalEdgeStyle;rounded=0;orthogonalLoop=1;jettySize=auto;html=1;entryX=0;entryY=0.5;entryDx=0;entryDy=0;" parent="xk_Vn_o706n0kWUSLnYP-1" target="xk_Vn_o706n0kWUSLnYP-17" edge="1">
          <mxGeometry relative="1" as="geometry">
            <mxPoint x="-740" y="260" as="sourcePoint" />
            <mxPoint x="-740" y="540" as="targetPoint" />
            <Array as="points">
              <mxPoint x="-740" y="480" />
            </Array>
          </mxGeometry>
        </mxCell>
        <mxCell id="vqremdskvs6pAqpLXsVv-22" value="" style="edgeStyle=orthogonalEdgeStyle;rounded=0;orthogonalLoop=1;jettySize=auto;html=1;entryX=0;entryY=0.5;entryDx=0;entryDy=0;" parent="xk_Vn_o706n0kWUSLnYP-1" target="xk_Vn_o706n0kWUSLnYP-33" edge="1">
          <mxGeometry relative="1" as="geometry">
            <mxPoint x="-700" y="920" as="sourcePoint" />
            <mxPoint x="-670" y="970" as="targetPoint" />
            <Array as="points">
              <mxPoint x="-700" y="1020" />
            </Array>
          </mxGeometry>
        </mxCell>
        <mxCell id="vqremdskvs6pAqpLXsVv-23" value="" style="edgeStyle=orthogonalEdgeStyle;rounded=0;orthogonalLoop=1;jettySize=auto;html=1;entryX=0;entryY=0.5;entryDx=0;entryDy=0;" parent="xk_Vn_o706n0kWUSLnYP-1" target="xk_Vn_o706n0kWUSLnYP-34" edge="1">
          <mxGeometry relative="1" as="geometry">
            <mxPoint x="-700" y="920" as="sourcePoint" />
            <mxPoint x="-670" y="1030" as="targetPoint" />
            <Array as="points">
              <mxPoint x="-700" y="1080" />
            </Array>
          </mxGeometry>
        </mxCell>
        <mxCell id="vqremdskvs6pAqpLXsVv-24" value="" style="edgeStyle=orthogonalEdgeStyle;rounded=0;orthogonalLoop=1;jettySize=auto;html=1;entryX=0;entryY=0.5;entryDx=0;entryDy=0;" parent="xk_Vn_o706n0kWUSLnYP-1" target="xk_Vn_o706n0kWUSLnYP-31" edge="1">
          <mxGeometry relative="1" as="geometry">
            <mxPoint x="-700" y="920" as="sourcePoint" />
            <mxPoint x="-670" y="1090" as="targetPoint" />
            <Array as="points">
              <mxPoint x="-700" y="1140" />
            </Array>
          </mxGeometry>
        </mxCell>
        <mxCell id="vqremdskvs6pAqpLXsVv-25" value="" style="edgeStyle=orthogonalEdgeStyle;rounded=0;orthogonalLoop=1;jettySize=auto;html=1;entryX=0;entryY=0.5;entryDx=0;entryDy=0;" parent="xk_Vn_o706n0kWUSLnYP-1" target="xk_Vn_o706n0kWUSLnYP-36" edge="1">
          <mxGeometry relative="1" as="geometry">
            <mxPoint x="-700" y="920" as="sourcePoint" />
            <mxPoint x="-670" y="1150" as="targetPoint" />
            <Array as="points">
              <mxPoint x="-700" y="1200" />
            </Array>
          </mxGeometry>
        </mxCell>
        <mxCell id="vqremdskvs6pAqpLXsVv-26" value="" style="edgeStyle=orthogonalEdgeStyle;rounded=0;orthogonalLoop=1;jettySize=auto;html=1;entryX=0;entryY=0.5;entryDx=0;entryDy=0;" parent="xk_Vn_o706n0kWUSLnYP-1" target="xk_Vn_o706n0kWUSLnYP-35" edge="1">
          <mxGeometry relative="1" as="geometry">
            <mxPoint x="-700" y="920" as="sourcePoint" />
            <mxPoint x="-660" y="1160" as="targetPoint" />
            <Array as="points">
              <mxPoint x="-700" y="1260" />
            </Array>
          </mxGeometry>
        </mxCell>
        <mxCell id="vqremdskvs6pAqpLXsVv-28" value="" style="edgeStyle=orthogonalEdgeStyle;rounded=0;orthogonalLoop=1;jettySize=auto;html=1;entryX=0;entryY=0.5;entryDx=0;entryDy=0;" parent="xk_Vn_o706n0kWUSLnYP-1" target="yfY8Aihl0Ymi1jhDVTgm-1" edge="1">
          <mxGeometry relative="1" as="geometry">
            <mxPoint x="-740" y="260" as="sourcePoint" />
            <mxPoint x="-740" y="670" as="targetPoint" />
            <Array as="points">
              <mxPoint x="-740" y="660" />
            </Array>
          </mxGeometry>
        </mxCell>
        <mxCell id="vqremdskvs6pAqpLXsVv-30" value="" style="edgeStyle=orthogonalEdgeStyle;rounded=0;orthogonalLoop=1;jettySize=auto;html=1;entryX=0;entryY=0.5;entryDx=0;entryDy=0;" parent="xk_Vn_o706n0kWUSLnYP-1" target="yfY8Aihl0Ymi1jhDVTgm-0" edge="1">
          <mxGeometry relative="1" as="geometry">
            <mxPoint x="-740" y="260" as="sourcePoint" />
            <mxPoint x="-730.01" y="959.8" as="targetPoint" />
            <Array as="points">
              <mxPoint x="-740" y="900" />
            </Array>
          </mxGeometry>
        </mxCell>
        <mxCell id="vqremdskvs6pAqpLXsVv-31" value="" style="edgeStyle=orthogonalEdgeStyle;rounded=0;orthogonalLoop=1;jettySize=auto;html=1;entryX=0;entryY=0.5;entryDx=0;entryDy=0;" parent="xk_Vn_o706n0kWUSLnYP-1" target="xk_Vn_o706n0kWUSLnYP-19" edge="1">
          <mxGeometry relative="1" as="geometry">
            <mxPoint x="-740" y="260" as="sourcePoint" />
            <mxPoint x="-710" y="970" as="targetPoint" />
            <Array as="points">
              <mxPoint x="-740" y="270" />
              <mxPoint x="-740" y="1380" />
            </Array>
          </mxGeometry>
        </mxCell>
        <mxCell id="vqremdskvs6pAqpLXsVv-34" value="&lt;div align=&quot;center&quot;&gt;&lt;font&gt;Function calls are color coded by the function&#39;s parent package/module.&lt;/font&gt;&lt;/div&gt;" style="text;html=1;align=center;verticalAlign=middle;whiteSpace=wrap;rounded=0;fontColor=#333333;fontSize=11;" parent="xk_Vn_o706n0kWUSLnYP-1" vertex="1">
          <mxGeometry x="-240" y="80" width="200" height="30" as="geometry" />
        </mxCell>
        <mxCell id="ofx5QJE8hlCwfAQoBGvs-2" value="" style="edgeStyle=orthogonalEdgeStyle;rounded=0;orthogonalLoop=1;jettySize=auto;html=1;entryX=0;entryY=0.5;entryDx=0;entryDy=0;" parent="xk_Vn_o706n0kWUSLnYP-1" target="xk_Vn_o706n0kWUSLnYP-30" edge="1">
          <mxGeometry relative="1" as="geometry">
            <mxPoint x="-700" y="680" as="sourcePoint" />
            <mxPoint x="-670" y="790" as="targetPoint" />
            <Array as="points">
              <mxPoint x="-700" y="840" />
            </Array>
          </mxGeometry>
        </mxCell>
        <mxCell id="ofx5QJE8hlCwfAQoBGvs-3" value="" style="edgeStyle=orthogonalEdgeStyle;rounded=0;orthogonalLoop=1;jettySize=auto;html=1;entryX=0;entryY=0.5;entryDx=0;entryDy=0;" parent="xk_Vn_o706n0kWUSLnYP-1" target="yfY8Aihl0Ymi1jhDVTgm-2" edge="1">
          <mxGeometry relative="1" as="geometry">
            <mxPoint x="-700" y="680" as="sourcePoint" />
            <mxPoint x="-670" y="850" as="targetPoint" />
            <Array as="points">
              <mxPoint x="-700" y="780" />
            </Array>
          </mxGeometry>
        </mxCell>
        <mxCell id="ofx5QJE8hlCwfAQoBGvs-4" value="" style="edgeStyle=orthogonalEdgeStyle;rounded=0;orthogonalLoop=1;jettySize=auto;html=1;entryX=0;entryY=0.5;entryDx=0;entryDy=0;" parent="xk_Vn_o706n0kWUSLnYP-1" target="xk_Vn_o706n0kWUSLnYP-29" edge="1">
          <mxGeometry relative="1" as="geometry">
            <mxPoint x="-700" y="680" as="sourcePoint" />
            <mxPoint x="-670" y="790" as="targetPoint" />
            <Array as="points">
              <mxPoint x="-700" y="720" />
            </Array>
          </mxGeometry>
        </mxCell>
      </root>
    </mxGraphModel>
  </diagram>
</mxfile>
